# Blender 4.1.1
# www.blender.org
mtllib floor.mtl
o Plane
v -27.924055 0.000002 27.924055
v 27.924055 0.000002 27.924055
v -27.924055 -0.000002 -27.924055
v 27.924055 -0.000002 -27.924055
v -22.846954 -0.000002 -27.924055
v -17.769854 -0.000002 -27.924055
v -12.692753 -0.000002 -27.924055
v -7.615652 -0.000002 -27.924055
v -2.538551 -0.000002 -27.924055
v 2.538550 -0.000002 -27.924055
v 7.615652 -0.000002 -27.924055
v 12.692753 -0.000002 -27.924055
v 17.769854 -0.000002 -27.924055
v 22.846954 -0.000002 -27.924055
v -22.846954 0.000002 27.924055
v -17.769854 0.000002 27.924055
v -12.692753 0.000002 27.924055
v -7.615652 0.000002 27.924055
v -2.538551 0.000002 27.924055
v 2.538550 0.000002 27.924055
v 7.615652 0.000002 27.924055
v 12.692753 0.000002 27.924055
v 17.769854 0.000002 27.924055
v 22.846954 0.000002 27.924055
v -27.924055 0.000002 22.846954
v -27.924055 0.000001 17.769854
v -27.924055 0.000001 12.692753
v -27.924055 0.000001 7.615652
v -27.924055 0.000000 2.538551
v -27.924055 -0.000000 -2.538550
v -27.924055 -0.000001 -7.615652
v -27.924055 -0.000001 -12.692753
v -27.924055 -0.000001 -17.769854
v -27.924055 -0.000002 -22.846954
v 27.924055 0.000002 22.846954
v 27.924055 0.000001 17.769854
v 27.924055 0.000001 12.692753
v 27.924055 0.000001 7.615652
v 27.924055 0.000000 2.538551
v 27.924055 -0.000000 -2.538550
v 27.924055 -0.000001 -7.615652
v 27.924055 -0.000001 -12.692753
v 27.924055 -0.000001 -17.769854
v 27.924055 -0.000002 -22.846954
v -22.846954 0.000002 22.846954
v -22.846954 0.000001 17.769854
v -22.846954 0.000001 12.692753
v -22.846954 0.000001 7.615652
v -22.846954 0.000000 2.538551
v -22.846954 -0.000000 -2.538550
v -22.846954 -0.000001 -7.615652
v -22.846954 -0.000001 -12.692753
v -22.846954 -0.000001 -17.769854
v -22.846954 -0.000002 -22.846954
v -17.769854 0.000002 22.846954
v -17.769854 0.000001 17.769854
v -17.769854 0.000001 12.692753
v -17.769854 0.000001 7.615652
v -17.769854 0.000000 2.538551
v -17.769854 -0.000000 -2.538550
v -17.769854 -0.000001 -7.615652
v -17.769854 -0.000001 -12.692753
v -17.769854 -0.000001 -17.769854
v -17.769854 -0.000002 -22.846954
v -12.692753 0.000002 22.846954
v -12.692753 0.000001 17.769854
v -12.692753 0.000001 12.692753
v -12.692753 0.000001 7.615652
v -12.692753 0.000000 2.538551
v -12.692753 -0.000000 -2.538550
v -12.692753 -0.000001 -7.615652
v -12.692753 -0.000001 -12.692753
v -12.692753 -0.000001 -17.769854
v -12.692753 -0.000002 -22.846954
v -7.615652 0.000002 22.846954
v -7.615652 0.000001 17.769854
v -7.615652 0.000001 12.692753
v -7.615652 0.000001 7.615652
v -7.615652 0.000000 2.538551
v -7.615652 -0.000000 -2.538550
v -7.615652 -0.000001 -7.615652
v -7.615652 -0.000001 -12.692753
v -7.615652 -0.000001 -17.769854
v -7.615652 -0.000002 -22.846954
v -2.538551 0.000002 22.846954
v -2.538551 0.000001 17.769854
v -2.538551 0.000001 12.692753
v -2.538551 0.000001 7.615652
v -2.538551 0.000000 2.538551
v -2.538551 -0.000000 -2.538550
v -2.538551 -0.000001 -7.615652
v -2.538551 -0.000001 -12.692753
v -2.538551 -0.000001 -17.769854
v -2.538551 -0.000002 -22.846954
v 2.538550 0.000002 22.846954
v 2.538550 0.000001 17.769854
v 2.538550 0.000001 12.692753
v 2.538550 0.000001 7.615652
v 2.538550 0.000000 2.538551
v 2.538550 -0.000000 -2.538550
v 2.538550 -0.000001 -7.615652
v 2.538550 -0.000001 -12.692753
v 2.538550 -0.000001 -17.769854
v 2.538550 -0.000002 -22.846954
v 7.615652 0.000002 22.846954
v 7.615652 0.000001 17.769854
v 7.615652 0.000001 12.692753
v 7.615652 0.000001 7.615652
v 7.615652 0.000000 2.538551
v 7.615652 -0.000000 -2.538550
v 7.615652 -0.000001 -7.615652
v 7.615652 -0.000001 -12.692753
v 7.615652 -0.000001 -17.769854
v 7.615652 -0.000002 -22.846954
v 12.692753 0.000002 22.846954
v 12.692753 0.000001 17.769854
v 12.692753 0.000001 12.692753
v 12.692753 0.000001 7.615652
v 12.692753 0.000000 2.538551
v 12.692753 -0.000000 -2.538550
v 12.692753 -0.000001 -7.615652
v 12.692753 -0.000001 -12.692753
v 12.692753 -0.000001 -17.769854
v 12.692753 -0.000002 -22.846954
v 17.769854 0.000002 22.846954
v 17.769854 0.000001 17.769854
v 17.769854 0.000001 12.692753
v 17.769854 0.000001 7.615652
v 17.769854 0.000000 2.538551
v 17.769854 -0.000000 -2.538550
v 17.769854 -0.000001 -7.615652
v 17.769854 -0.000001 -12.692753
v 17.769854 -0.000001 -17.769854
v 17.769854 -0.000002 -22.846954
v 22.846954 0.000002 22.846954
v 22.846954 0.000001 17.769854
v 22.846954 0.000001 12.692753
v 22.846954 0.000001 7.615652
v 22.846954 0.000000 2.538551
v 22.846954 -0.000000 -2.538550
v 22.846954 -0.000001 -7.615652
v 22.846954 -0.000001 -12.692753
v 22.846954 -0.000001 -17.769854
v 22.846954 -0.000002 -22.846954
vn -0.0000 1.0000 -0.0000
vt 0.909091 0.909091
vt 1.000000 0.909091
vt 1.000000 1.000000
vt 0.909091 1.000000
vt 0.000000 0.909091
vt 0.090909 0.909091
vt 0.090909 1.000000
vt 0.000000 1.000000
vt 0.181818 0.909091
vt 0.181818 1.000000
vt 0.272727 0.909091
vt 0.272727 1.000000
vt 0.363636 0.909091
vt 0.363636 1.000000
vt 0.454545 0.909091
vt 0.454545 1.000000
vt 0.545455 0.909091
vt 0.545455 1.000000
vt 0.636364 0.909091
vt 0.636364 1.000000
vt 0.727273 0.909091
vt 0.727273 1.000000
vt 0.818182 0.909091
vt 0.818182 1.000000
vt 0.000000 0.000000
vt 0.090909 0.000000
vt 0.090909 0.090909
vt 0.000000 0.090909
vt 0.090909 0.181818
vt 0.000000 0.181818
vt 0.090909 0.272727
vt 0.000000 0.272727
vt 0.090909 0.363636
vt 0.000000 0.363636
vt 0.090909 0.454545
vt 0.000000 0.454545
vt 0.090909 0.545455
vt 0.000000 0.545455
vt 0.090909 0.636364
vt 0.000000 0.636364
vt 0.090909 0.727273
vt 0.000000 0.727273
vt 0.090909 0.818182
vt 0.000000 0.818182
vt 0.181818 0.000000
vt 0.181818 0.090909
vt 0.181818 0.181818
vt 0.181818 0.272727
vt 0.181818 0.363636
vt 0.181818 0.454545
vt 0.181818 0.545455
vt 0.181818 0.636364
vt 0.181818 0.727273
vt 0.181818 0.818182
vt 0.272727 0.000000
vt 0.272727 0.090909
vt 0.272727 0.181818
vt 0.272727 0.272727
vt 0.272727 0.363636
vt 0.272727 0.454545
vt 0.272727 0.545455
vt 0.272727 0.636364
vt 0.272727 0.727273
vt 0.272727 0.818182
vt 0.363636 0.000000
vt 0.363636 0.090909
vt 0.363636 0.181818
vt 0.363636 0.272727
vt 0.363636 0.363636
vt 0.363636 0.454545
vt 0.363636 0.545455
vt 0.363636 0.636364
vt 0.363636 0.727273
vt 0.363636 0.818182
vt 0.454545 0.000000
vt 0.454545 0.090909
vt 0.454545 0.181818
vt 0.454545 0.272727
vt 0.454545 0.363636
vt 0.454545 0.454545
vt 0.454545 0.545455
vt 0.454545 0.636364
vt 0.454545 0.727273
vt 0.454545 0.818182
vt 0.545455 0.000000
vt 0.545455 0.090909
vt 0.545455 0.181818
vt 0.545455 0.272727
vt 0.545455 0.363636
vt 0.545455 0.454545
vt 0.545455 0.545455
vt 0.545455 0.636364
vt 0.545455 0.727273
vt 0.545455 0.818182
vt 0.636364 0.000000
vt 0.636364 0.090909
vt 0.636364 0.181818
vt 0.636364 0.272727
vt 0.636364 0.363636
vt 0.636364 0.454545
vt 0.636364 0.545455
vt 0.636364 0.636364
vt 0.636364 0.727273
vt 0.636364 0.818182
vt 0.727273 0.000000
vt 0.727273 0.090909
vt 0.727273 0.181818
vt 0.727273 0.272727
vt 0.727273 0.363636
vt 0.727273 0.454545
vt 0.727273 0.545455
vt 0.727273 0.636364
vt 0.727273 0.727273
vt 0.727273 0.818182
vt 0.818182 0.000000
vt 0.818182 0.090909
vt 0.818182 0.181818
vt 0.818182 0.272727
vt 0.818182 0.363636
vt 0.818182 0.454545
vt 0.818182 0.545455
vt 0.818182 0.636364
vt 0.818182 0.727273
vt 0.818182 0.818182
vt 0.909091 0.000000
vt 0.909091 0.090909
vt 0.909091 0.181818
vt 0.909091 0.272727
vt 0.909091 0.363636
vt 0.909091 0.454545
vt 0.909091 0.545455
vt 0.909091 0.636364
vt 0.909091 0.727273
vt 0.909091 0.818182
vt 1.000000 0.000000
vt 1.000000 0.090909
vt 1.000000 0.181818
vt 1.000000 0.272727
vt 1.000000 0.363636
vt 1.000000 0.454545
vt 1.000000 0.545455
vt 1.000000 0.636364
vt 1.000000 0.727273
vt 1.000000 0.818182
s 0
usemtl None
f 144/1/1 44/2/1 4/3/1 14/4/1
f 34/5/1 54/6/1 5/7/1 3/8/1
f 54/6/1 64/9/1 6/10/1 5/7/1
f 64/9/1 74/11/1 7/12/1 6/10/1
f 74/11/1 84/13/1 8/14/1 7/12/1
f 84/13/1 94/15/1 9/16/1 8/14/1
f 94/15/1 104/17/1 10/18/1 9/16/1
f 104/17/1 114/19/1 11/20/1 10/18/1
f 114/19/1 124/21/1 12/22/1 11/20/1
f 124/21/1 134/23/1 13/24/1 12/22/1
f 134/23/1 144/1/1 14/4/1 13/24/1
f 1/25/1 15/26/1 45/27/1 25/28/1
f 25/28/1 45/27/1 46/29/1 26/30/1
f 26/30/1 46/29/1 47/31/1 27/32/1
f 27/32/1 47/31/1 48/33/1 28/34/1
f 28/34/1 48/33/1 49/35/1 29/36/1
f 29/36/1 49/35/1 50/37/1 30/38/1
f 30/38/1 50/37/1 51/39/1 31/40/1
f 31/40/1 51/39/1 52/41/1 32/42/1
f 32/42/1 52/41/1 53/43/1 33/44/1
f 33/44/1 53/43/1 54/6/1 34/5/1
f 15/26/1 16/45/1 55/46/1 45/27/1
f 45/27/1 55/46/1 56/47/1 46/29/1
f 46/29/1 56/47/1 57/48/1 47/31/1
f 47/31/1 57/48/1 58/49/1 48/33/1
f 48/33/1 58/49/1 59/50/1 49/35/1
f 49/35/1 59/50/1 60/51/1 50/37/1
f 50/37/1 60/51/1 61/52/1 51/39/1
f 51/39/1 61/52/1 62/53/1 52/41/1
f 52/41/1 62/53/1 63/54/1 53/43/1
f 53/43/1 63/54/1 64/9/1 54/6/1
f 16/45/1 17/55/1 65/56/1 55/46/1
f 55/46/1 65/56/1 66/57/1 56/47/1
f 56/47/1 66/57/1 67/58/1 57/48/1
f 57/48/1 67/58/1 68/59/1 58/49/1
f 58/49/1 68/59/1 69/60/1 59/50/1
f 59/50/1 69/60/1 70/61/1 60/51/1
f 60/51/1 70/61/1 71/62/1 61/52/1
f 61/52/1 71/62/1 72/63/1 62/53/1
f 62/53/1 72/63/1 73/64/1 63/54/1
f 63/54/1 73/64/1 74/11/1 64/9/1
f 17/55/1 18/65/1 75/66/1 65/56/1
f 65/56/1 75/66/1 76/67/1 66/57/1
f 66/57/1 76/67/1 77/68/1 67/58/1
f 67/58/1 77/68/1 78/69/1 68/59/1
f 68/59/1 78/69/1 79/70/1 69/60/1
f 69/60/1 79/70/1 80/71/1 70/61/1
f 70/61/1 80/71/1 81/72/1 71/62/1
f 71/62/1 81/72/1 82/73/1 72/63/1
f 72/63/1 82/73/1 83/74/1 73/64/1
f 73/64/1 83/74/1 84/13/1 74/11/1
f 18/65/1 19/75/1 85/76/1 75/66/1
f 75/66/1 85/76/1 86/77/1 76/67/1
f 76/67/1 86/77/1 87/78/1 77/68/1
f 77/68/1 87/78/1 88/79/1 78/69/1
f 78/69/1 88/79/1 89/80/1 79/70/1
f 79/70/1 89/80/1 90/81/1 80/71/1
f 80/71/1 90/81/1 91/82/1 81/72/1
f 81/72/1 91/82/1 92/83/1 82/73/1
f 82/73/1 92/83/1 93/84/1 83/74/1
f 83/74/1 93/84/1 94/15/1 84/13/1
f 19/75/1 20/85/1 95/86/1 85/76/1
f 85/76/1 95/86/1 96/87/1 86/77/1
f 86/77/1 96/87/1 97/88/1 87/78/1
f 87/78/1 97/88/1 98/89/1 88/79/1
f 88/79/1 98/89/1 99/90/1 89/80/1
f 89/80/1 99/90/1 100/91/1 90/81/1
f 90/81/1 100/91/1 101/92/1 91/82/1
f 91/82/1 101/92/1 102/93/1 92/83/1
f 92/83/1 102/93/1 103/94/1 93/84/1
f 93/84/1 103/94/1 104/17/1 94/15/1
f 20/85/1 21/95/1 105/96/1 95/86/1
f 95/86/1 105/96/1 106/97/1 96/87/1
f 96/87/1 106/97/1 107/98/1 97/88/1
f 97/88/1 107/98/1 108/99/1 98/89/1
f 98/89/1 108/99/1 109/100/1 99/90/1
f 99/90/1 109/100/1 110/101/1 100/91/1
f 100/91/1 110/101/1 111/102/1 101/92/1
f 101/92/1 111/102/1 112/103/1 102/93/1
f 102/93/1 112/103/1 113/104/1 103/94/1
f 103/94/1 113/104/1 114/19/1 104/17/1
f 21/95/1 22/105/1 115/106/1 105/96/1
f 105/96/1 115/106/1 116/107/1 106/97/1
f 106/97/1 116/107/1 117/108/1 107/98/1
f 107/98/1 117/108/1 118/109/1 108/99/1
f 108/99/1 118/109/1 119/110/1 109/100/1
f 109/100/1 119/110/1 120/111/1 110/101/1
f 110/101/1 120/111/1 121/112/1 111/102/1
f 111/102/1 121/112/1 122/113/1 112/103/1
f 112/103/1 122/113/1 123/114/1 113/104/1
f 113/104/1 123/114/1 124/21/1 114/19/1
f 22/105/1 23/115/1 125/116/1 115/106/1
f 115/106/1 125/116/1 126/117/1 116/107/1
f 116/107/1 126/117/1 127/118/1 117/108/1
f 117/108/1 127/118/1 128/119/1 118/109/1
f 118/109/1 128/119/1 129/120/1 119/110/1
f 119/110/1 129/120/1 130/121/1 120/111/1
f 120/111/1 130/121/1 131/122/1 121/112/1
f 121/112/1 131/122/1 132/123/1 122/113/1
f 122/113/1 132/123/1 133/124/1 123/114/1
f 123/114/1 133/124/1 134/23/1 124/21/1
f 23/115/1 24/125/1 135/126/1 125/116/1
f 125/116/1 135/126/1 136/127/1 126/117/1
f 126/117/1 136/127/1 137/128/1 127/118/1
f 127/118/1 137/128/1 138/129/1 128/119/1
f 128/119/1 138/129/1 139/130/1 129/120/1
f 129/120/1 139/130/1 140/131/1 130/121/1
f 130/121/1 140/131/1 141/132/1 131/122/1
f 131/122/1 141/132/1 142/133/1 132/123/1
f 132/123/1 142/133/1 143/134/1 133/124/1
f 133/124/1 143/134/1 144/1/1 134/23/1
f 24/125/1 2/135/1 35/136/1 135/126/1
f 135/126/1 35/136/1 36/137/1 136/127/1
f 136/127/1 36/137/1 37/138/1 137/128/1
f 137/128/1 37/138/1 38/139/1 138/129/1
f 138/129/1 38/139/1 39/140/1 139/130/1
f 139/130/1 39/140/1 40/141/1 140/131/1
f 140/131/1 40/141/1 41/142/1 141/132/1
f 141/132/1 41/142/1 42/143/1 142/133/1
f 142/133/1 42/143/1 43/144/1 143/134/1
f 143/134/1 43/144/1 44/2/1 144/1/1
