# Blender 4.1.1
# www.blender.org
mtllib 无标题.mtl
o floor
v 552.799988 0.000000 0.000000
v 0.000000 0.000000 0.000000
v 0.000000 0.000042 559.200012
v 549.599976 0.000042 559.200012
v 556.000000 548.799988 -0.000041
v 556.000000 548.800049 559.199951
v 0.000000 548.800049 559.199951
v 0.000000 548.799988 -0.000041
v 549.599976 0.000042 559.200012
v 0.000000 0.000042 559.200012
v 0.000000 548.800049 559.199951
v 556.000000 548.800049 559.199951
vn -0.0000 1.0000 -0.0000
vn -0.0000 -1.0000 -0.0000
vn -0.0000 -0.0000 -1.0000
s 0
f 1//1 2//1 3//1
f 3//1 4//1 1//1
f 5//2 6//2 7//2
f 7//2 8//2 5//2
f 9//3 10//3 11//3
f 11//3 12//3 9//3
