# Blender 4.1.1
# www.blender.org
mtllib left_add.mtl
o left
v 552.799988 0.000000 0.000000
v 549.599976 0.000042 559.200012
v 556.000000 548.800049 559.199951
v 556.000000 548.799988 -0.000041
v 550.181824 49.890953 559.200012
v 550.763672 99.781868 559.200012
v 551.345459 149.672775 559.200012
v 551.927246 199.563675 559.200012
v 552.509094 249.454590 559.200012
v 553.090942 299.345490 559.200012
v 553.672729 349.236389 559.200012
v 554.254517 399.127289 559.200012
v 554.836365 449.018188 559.199951
v 555.418213 498.909088 559.199951
v 552.509094 0.000004 50.836365
v 552.218201 0.000008 101.672729
v 551.927307 0.000012 152.509094
v 551.636414 0.000015 203.345459
v 551.345520 0.000019 254.181824
v 551.054565 0.000023 305.018188
v 550.763672 0.000027 355.854553
v 550.472778 0.000031 406.690918
v 550.181824 0.000035 457.527283
v 549.890869 0.000038 508.363647
v 553.090881 49.890915 50.836361
v 553.381775 99.781830 101.672722
v 553.672668 149.672745 152.509079
v 553.963562 199.563644 203.345444
v 554.254456 249.454559 254.181808
v 554.545410 299.345490 305.018158
v 554.836304 349.236389 355.854523
v 555.127197 399.127289 406.690887
v 555.418152 449.018188 457.527252
v 555.709106 498.909088 508.363617
v 553.090881 49.890911 -0.000004
v 553.381775 99.781822 -0.000008
v 553.672668 149.672729 -0.000011
v 553.963562 199.563629 -0.000015
v 554.254456 249.454544 -0.000019
v 554.545410 299.345459 -0.000023
v 554.836304 349.236359 -0.000026
v 555.127197 399.127258 -0.000030
v 555.418152 449.018158 -0.000034
v 555.709106 498.909058 -0.000038
v 556.000000 548.800049 508.363617
v 556.000000 548.800049 457.527252
v 556.000000 548.800049 406.690887
v 556.000000 548.799988 355.854523
v 556.000000 548.799988 305.018158
v 556.000000 548.799988 254.181778
v 556.000000 548.799988 203.345413
v 556.000000 548.799988 152.509048
v 556.000000 548.799988 101.672691
v 556.000000 548.799988 50.836323
v 555.709106 498.909058 50.836327
v 555.418152 449.018158 50.836330
v 555.709106 498.909058 101.672691
v 555.127197 399.127258 50.836334
v 555.418152 449.018158 101.672699
v 555.709106 498.909058 152.509064
v 554.836304 349.236359 50.836338
v 555.127197 399.127258 101.672699
v 555.418152 449.018158 152.509064
v 555.709106 498.909088 203.345428
v 554.545410 299.345459 50.836342
v 554.836304 349.236359 101.672707
v 555.127197 399.127258 152.509064
v 555.418152 449.018188 203.345428
v 555.709106 498.909088 254.181793
v 554.254456 249.454544 50.836349
v 554.545410 299.345459 101.672707
v 554.836304 349.236359 152.509064
v 555.127197 399.127289 203.345428
v 555.418152 449.018188 254.181793
v 555.709106 498.909088 305.018158
v 553.963562 199.563629 50.836349
v 554.254456 249.454559 101.672714
v 554.545410 299.345459 152.509079
v 554.836304 349.236389 203.345428
v 555.127197 399.127289 254.181793
v 555.418152 449.018188 305.018158
v 555.709106 498.909088 355.854523
v 553.672668 149.672729 50.836353
v 553.963562 199.563644 101.672714
v 554.254456 249.454559 152.509079
v 554.545410 299.345490 203.345444
v 554.836304 349.236389 254.181793
v 555.127197 399.127289 305.018158
v 555.418152 449.018188 355.854523
v 555.709106 498.909088 406.690887
v 553.381775 99.781830 50.836357
v 553.672668 149.672745 101.672722
v 553.963562 199.563644 152.509079
v 554.254456 249.454559 203.345444
v 554.545410 299.345490 254.181808
v 554.836304 349.236389 305.018158
v 555.127197 399.127289 355.854523
v 555.418152 449.018188 406.690887
v 555.709106 498.909088 457.527252
v 555.127258 449.018188 508.363617
v 554.836304 399.127289 457.527252
v 554.545410 399.127289 508.363617
v 554.545410 349.236389 406.690887
v 554.254517 349.236389 457.527252
v 553.963623 349.236389 508.363617
v 554.254517 299.345490 355.854523
v 553.963623 299.345490 406.690887
v 553.672729 299.345490 457.527252
v 553.381836 299.345490 508.363617
v 553.963562 249.454575 305.018158
v 553.672668 249.454575 355.854523
v 553.381775 249.454575 406.690887
v 553.090881 249.454575 457.527252
v 552.799988 249.454590 508.363617
v 553.672668 199.563644 254.181808
v 553.381775 199.563660 305.018188
v 553.090881 199.563660 355.854553
v 552.799988 199.563660 406.690918
v 552.509094 199.563660 457.527283
v 552.218140 199.563675 508.363647
v 553.381775 149.672745 203.345444
v 553.090881 149.672745 254.181808
v 552.799988 149.672760 305.018188
v 552.509094 149.672760 355.854553
v 552.218201 149.672760 406.690918
v 551.927307 149.672760 457.527283
v 551.636353 149.672775 508.363647
v 553.090881 99.781837 152.509094
v 552.799988 99.781837 203.345459
v 552.509094 99.781845 254.181824
v 552.218201 99.781845 305.018188
v 551.927307 99.781853 355.854553
v 551.636414 99.781853 406.690918
v 551.345520 99.781860 457.527283
v 551.054565 99.781860 508.363647
v 552.799988 49.890919 101.672729
v 552.509094 49.890923 152.509094
v 552.218201 49.890926 203.345459
v 551.927307 49.890930 254.181824
v 551.636414 49.890934 305.018188
v 551.345520 49.890938 355.854553
v 551.054565 49.890942 406.690918
v 550.763672 49.890945 457.527283
v 550.472778 49.890949 508.363647
vn -0.9999 0.0117 -0.0057
vn -1.0000 0.0058 -0.0000
s 0
f 1//1 15//1 25//1
f 1//2 25//2 35//2
f 44//2 54//2 4//2
f 43//2 55//2 44//2
f 42//2 56//2 43//2
f 41//2 58//2 42//2
f 40//2 61//2 41//2
f 39//2 65//2 40//2
f 38//2 70//2 39//2
f 37//2 76//2 38//2
f 36//2 83//2 37//2
f 35//2 91//2 36//2
f 44//2 55//2 54//2
f 55//2 53//2 54//2
f 43//2 56//2 55//2
f 56//2 57//2 55//2
f 55//2 57//2 53//2
f 57//2 52//2 53//2
f 42//2 58//2 56//2
f 58//2 59//2 56//2
f 56//2 59//2 57//2
f 59//2 60//2 57//2
f 57//2 60//2 52//2
f 60//2 51//2 52//2
f 41//2 61//2 58//2
f 61//2 62//2 58//2
f 58//2 62//2 59//2
f 62//2 63//2 59//2
f 59//2 63//2 60//2
f 63//2 64//2 60//2
f 60//2 64//2 51//2
f 64//2 50//2 51//2
f 40//2 65//2 61//2
f 65//2 66//2 61//2
f 61//2 66//2 62//2
f 66//2 67//2 62//2
f 62//2 67//2 63//2
f 67//2 68//2 63//2
f 63//2 68//2 64//2
f 68//2 69//2 64//2
f 64//2 69//2 50//2
f 69//2 49//2 50//2
f 39//2 70//2 65//2
f 70//2 71//2 65//2
f 65//2 71//2 66//2
f 71//2 72//2 66//2
f 66//2 72//2 67//2
f 72//2 73//2 67//2
f 67//2 73//2 68//2
f 73//2 74//2 68//2
f 68//2 74//2 69//2
f 74//2 75//2 69//2
f 69//2 75//2 49//2
f 75//2 48//2 49//2
f 38//2 76//2 70//2
f 76//2 77//2 70//2
f 70//2 77//2 71//2
f 77//2 78//2 71//2
f 71//2 78//2 72//2
f 78//2 79//2 72//2
f 72//2 79//2 73//2
f 79//2 80//2 73//2
f 73//2 80//2 74//2
f 80//2 81//2 74//2
f 74//2 81//2 75//2
f 81//2 82//2 75//2
f 75//2 82//2 48//2
f 82//2 47//2 48//2
f 37//2 83//2 76//2
f 83//2 84//2 76//2
f 76//2 84//2 77//2
f 84//2 85//2 77//2
f 77//2 85//2 78//2
f 85//2 86//2 78//2
f 78//2 86//2 79//2
f 86//2 87//2 79//2
f 79//2 87//2 80//2
f 87//2 88//2 80//2
f 80//2 88//2 81//2
f 88//2 89//2 81//2
f 81//2 89//2 82//2
f 89//2 90//2 82//2
f 82//2 90//2 47//2
f 90//2 46//2 47//2
f 36//2 91//2 83//2
f 91//2 92//2 83//2
f 83//2 92//2 84//2
f 92//2 93//2 84//2
f 84//2 93//2 85//2
f 93//2 94//2 85//2
f 85//2 94//2 86//2
f 94//2 95//2 86//2
f 86//2 95//2 87//2
f 95//2 96//2 87//2
f 87//2 96//2 88//2
f 96//2 97//2 88//2
f 88//2 97//2 89//2
f 97//2 98//2 89//2
f 89//2 98//2 90//2
f 98//2 99//2 90//2
f 90//2 99//2 46//2
f 99//2 45//2 46//2
f 35//2 25//2 91//2
f 25//2 26//2 91//2
f 91//2 26//2 92//2
f 26//2 27//2 92//2
f 92//2 27//2 93//2
f 27//2 28//2 93//2
f 93//2 28//2 94//2
f 28//2 29//2 94//2
f 94//2 29//2 95//2
f 29//2 30//2 95//2
f 95//2 30//2 96//2
f 30//2 31//2 96//2
f 96//2 31//2 97//2
f 31//2 32//2 97//2
f 97//2 32//2 98//2
f 32//2 33//2 98//2
f 98//2 33//2 99//2
f 33//2 34//2 99//2
f 99//2 34//2 45//2
f 34//2 3//2 45//2
f 34//1 14//1 3//1
f 33//1 100//1 34//1
f 32//1 101//1 33//1
f 31//1 103//1 32//1
f 30//1 106//1 31//1
f 29//1 110//1 30//1
f 28//1 115//1 29//1
f 27//1 121//1 28//1
f 26//1 128//1 27//1
f 25//1 136//1 26//1
f 34//1 100//1 14//1
f 100//1 13//1 14//1
f 33//1 101//1 100//1
f 101//1 102//1 100//1
f 100//1 102//1 13//1
f 102//1 12//1 13//1
f 32//1 103//1 101//1
f 103//1 104//1 101//1
f 101//1 104//1 102//1
f 104//1 105//1 102//1
f 102//1 105//1 12//1
f 105//1 11//1 12//1
f 31//1 106//1 103//1
f 106//1 107//1 103//1
f 103//1 107//1 104//1
f 107//1 108//1 104//1
f 104//1 108//1 105//1
f 108//1 109//1 105//1
f 105//1 109//1 11//1
f 109//1 10//1 11//1
f 30//1 110//1 106//1
f 110//1 111//1 106//1
f 106//1 111//1 107//1
f 111//1 112//1 107//1
f 107//1 112//1 108//1
f 112//1 113//1 108//1
f 108//1 113//1 109//1
f 113//1 114//1 109//1
f 109//1 114//1 10//1
f 114//1 9//1 10//1
f 29//1 115//1 110//1
f 115//1 116//1 110//1
f 110//1 116//1 111//1
f 116//1 117//1 111//1
f 111//1 117//1 112//1
f 117//1 118//1 112//1
f 112//1 118//1 113//1
f 118//1 119//1 113//1
f 113//1 119//1 114//1
f 119//1 120//1 114//1
f 114//1 120//1 9//1
f 120//1 8//1 9//1
f 28//1 121//1 115//1
f 121//1 122//1 115//1
f 115//1 122//1 116//1
f 122//1 123//1 116//1
f 116//1 123//1 117//1
f 123//1 124//1 117//1
f 117//1 124//1 118//1
f 124//1 125//1 118//1
f 118//1 125//1 119//1
f 125//1 126//1 119//1
f 119//1 126//1 120//1
f 126//1 127//1 120//1
f 120//1 127//1 8//1
f 127//1 7//1 8//1
f 27//1 128//1 121//1
f 128//1 129//1 121//1
f 121//1 129//1 122//1
f 129//1 130//1 122//1
f 122//1 130//1 123//1
f 130//1 131//1 123//1
f 123//1 131//1 124//1
f 131//1 132//1 124//1
f 124//1 132//1 125//1
f 132//1 133//1 125//1
f 125//1 133//1 126//1
f 133//1 134//1 126//1
f 126//1 134//1 127//1
f 134//1 135//1 127//1
f 127//1 135//1 7//1
f 135//1 6//1 7//1
f 26//1 136//1 128//1
f 136//1 137//1 128//1
f 128//1 137//1 129//1
f 137//1 138//1 129//1
f 129//1 138//1 130//1
f 138//1 139//1 130//1
f 130//1 139//1 131//1
f 139//1 140//1 131//1
f 131//1 140//1 132//1
f 140//1 141//1 132//1
f 132//1 141//1 133//1
f 141//1 142//1 133//1
f 133//1 142//1 134//1
f 142//1 143//1 134//1
f 134//1 143//1 135//1
f 143//1 144//1 135//1
f 135//1 144//1 6//1
f 144//1 5//1 6//1
f 25//1 15//1 136//1
f 15//1 16//1 136//1
f 136//1 16//1 137//1
f 16//1 17//1 137//1
f 137//1 17//1 138//1
f 17//1 18//1 138//1
f 138//1 18//1 139//1
f 18//1 19//1 139//1
f 139//1 19//1 140//1
f 19//1 20//1 140//1
f 140//1 20//1 141//1
f 20//1 21//1 141//1
f 141//1 21//1 142//1
f 21//1 22//1 142//1
f 142//1 22//1 143//1
f 22//1 23//1 143//1
f 143//1 23//1 144//1
f 23//1 24//1 144//1
f 144//1 24//1 5//1
f 24//1 2//1 5//1
